<?xml version="1.0" encoding="utf-8"?>
<!-- Generator: Adobe Illustrator 24.2.3, SVG Export Plug-In . SVG Version: 6.00 Build 0)  -->
<svg version="1.1" id="Layer_1" xmlns="http://www.w3.org/2000/svg" xmlns:xlink="http://www.w3.org/1999/xlink" x="0px" y="0px"
	 viewBox="0 0 122.4 221.6" style="enable-background:new 0 0 122.4 221.6;" xml:space="preserve">
<style type="text/css">
	.st0{fill:#F8BD7A;}
	.st1{fill:#262B40;}
</style>
<path class="st0" d="M914.3,109.3L912,109c0.2,1.2,0.3,2.5,0.5,3.8C913,111.6,913.6,110.4,914.3,109.3z"/>
<path class="st1" d="M44.7,114.8L2.6,221.6L120.1,75.2l-51.8,1.2L112,3.9c0-0.1,0-0.1,0.1-0.2c0-0.1,0-0.2,0.1-0.3l0,0
	c0-0.1,0-0.1,0.1-0.1c0.1-0.2,0.1-0.4,0.2-0.6c0-0.2,0.1-0.3,0.2-0.4c-0.1-0.2,0-0.4,0.1-0.5c0.1-0.1,0.2-0.2,0.3-0.2V1.3
	c0-0.2,0.1-0.3,0.2-0.4l0,0V0.8c0-0.1,0-0.1,0.1-0.1l0,0V0.6c0-0.2,0.1-0.4,0.2-0.6L54,1.4L0,116.1L44.7,114.8z"/>
	<path style="fill:#3A7F0D;" d="M339.772,0c0,0,44.536,108.954-146.337,182.138C89.719,221.893,10.059,323.789,105.173,481.193
	c7.877-70.357,41.653-225.485,186.888-260.884c0,0-135.176,50.546-147.117,279.347c69.459,9.752,232.361,16.305,280.726-125.062
	C489.536,187.817,339.772,0,339.772,0z"/>
	<path style="fill:#49A010;" d="M145.007,498.704c147.456-58.849,254.748-196.71,269.556-361.283C384.418,56.107,339.772,0,339.772,0
	s44.536,108.954-146.337,182.138C89.719,221.893,10.059,323.789,105.173,481.193c7.877-70.357,41.653-225.485,186.888-260.884
	C292.053,220.31,157.279,270.73,145.007,498.704z"/>
</svg>
